<?xml version="1.0" encoding="utf-8"?>
<!-- Generator: Adobe Illustrator 18.1.1, SVG Export Plug-In . SVG Version: 6.00 Build 0)  -->
<!DOCTYPE svg PUBLIC "-//W3C//DTD SVG 1.1//EN" "http://www.w3.org/Graphics/SVG/1.1/DTD/svg11.dtd">
<svg version="1.1" id="レイヤー_1" xmlns="http://www.w3.org/2000/svg" xmlns:xlink="http://www.w3.org/1999/xlink" x="0px"
	 y="0px" viewBox="0 0 960 560" enable-background="new 0 0 960 560" xml:space="preserve">
<g>
	<path fill="#333D47" d="M226.3,282.1c-14-9.7-31.3-12.9-47.5-17.1c-13.6-3.5-33-7.8-35.4-24.4c-1.1-7.4,0.2-15.8,4.6-22
		c4.4-6.2,11.6-9.6,18.9-11.4c15.4-3.6,32.6-1.4,47.6,3c6.4,1.9,12.6,4.2,18.7,6.8l4.9,2.6V189l-1.4-1.3l-0.2-0.1
		c-15.7-6.7-32.6-10.5-49.6-11.1c-16.5-0.6-33.6,1.7-48.1,9.9c-13.1,7.4-23,19.6-26.8,34.2c-3.6,14.2-3.1,31.4,4.7,44.2
		c8.4,13.7,22.7,21,37.7,25.4c8.6,2.5,17.2,4.4,25.8,6.7c7.9,2,15.9,4.1,22.8,8.4c6.4,4,10.5,10.1,11.2,17.6c0.6,7.2-0.6,15-4.9,21
		c-9.4,13.2-29.2,14.9-44,14.6c-12.9-0.3-26-2.7-38.2-6.8l-0.4-0.1c-4.1-1.4-8.7-2.9-11.9-4.5l-6.7-2.7V375l3,1
		c5.7,3.4,12.6,5.3,19,6.9c8.3,2.1,16.7,3.6,25.2,4.3c16.9,1.5,34.7,0.3,50.8-5.2c14.5-5,27.3-14.1,34.7-27.7
		c7.3-13.5,8.6-30.9,4.7-45.6C242.5,297.9,235.4,288.4,226.3,282.1C220.2,277.9,232.5,286.4,226.3,282.1z"/>
	<path fill="#333D47" d="M551,306h45v50c-29.5,6.1-68.4,3.7-88.2-22.3c-9.3-12.2-13.2-27.3-14-42.5c-0.9-15.8,1.1-31.9,8.4-46.2
		c21.2-40.8,72.6-45.9,112.3-32.7l4.5,2v-29.1l-1.3-1.3l-0.2-0.1c-15.1-6.6-33.1-7.8-49.4-7.3c-16.5,0.5-33,3.8-48,10.7
		c-29,13.4-48.5,39.5-55.2,70.5c-6.6,31-3.2,67.2,16.5,93.1c19.5,25.6,51.5,35.9,82.6,36.9c11.6,0.3,23.2-0.5,34.6-2.3
		c9.4-1.5,19.5-3.2,28-7.7c0.6-0.3,1.2-0.8,1.5-1.4V277h-77V306z"/>
	<path fill="#333D47" d="M822.1,182l0,153.5c-12.5-18-24.9-35.9-37.4-53.9c-19.3-27.8-38.6-55.6-58-83.5
		c-3.7-5.4-7.4-10.7-11.2-16.1c-0.3-0.4-2.2-0.1-2.7-0.1c-3.5,0-7.1,0-10.6,0c-6.1,0-12.1,0-18.2,0v204h32.1l0-154.2L822.9,386H851
		V182H822.1z"/>
	<polygon fill="#0088D5" points="347.6,341.5 307.6,310 287.9,335.1 361.6,393.3 445.3,178.2 415.6,166.6 	"/>
</g>
</svg>
